<?xml version="1.0" encoding="UTF-8"?>
<svg id="_レイヤー_2" data-name="レイヤー 2" xmlns="http://www.w3.org/2000/svg" viewBox="0 0 266.59 353.98">
  <defs>
    <style>
      .cls-1 {
        opacity: .5;
      }
    </style>
  </defs>
  <g id="_レイヤー_1-2" data-name="レイヤー 1">
    <g>
      <path class="cls-1" d="M40.29,67.96q0-12.69-15.5-12.69,15.5,0,15.5-12.69,0,12.69,15.5,12.69-15.5,0-15.5,12.69Z"/>
      <path class="cls-1" d="M9.07,87.16q5.96,0,5.96-9.17,0,9.17,5.96,9.17-5.96,0-5.96,9.17,0-9.17-5.96-9.17Z"/>
      <path class="cls-1" d="M248.77,25.42q8.91,0,8.91-10.48,0,10.48,8.91,10.48-8.91,0-8.91,10.48,0-10.48-8.91-10.48Z"/>
      <path class="cls-1" d="M25.68,157.49q8.38,0,8.38-12.9,0,12.9,8.38,12.9-8.38,0-8.38,12.9,0-12.9-8.38-12.9Z"/>
      <path class="cls-1" d="M249.76,132.14q0,6.99,8.77,6.99-8.77,0-8.77,6.99,0-6.99-8.77-6.99,8.77,0,8.77-6.99Z"/>
      <path class="cls-1" d="M202.01,87.44q6.14,0,6.14-9.45,0,9.45,6.14,9.45-6.14,0-6.14,9.45,0-9.45-6.14-9.45Z"/>
      <path class="cls-1" d="M232.76,345.23q8.59,0,8.59-8.75,0,8.75,8.59,8.75-8.59,0-8.59,8.75,0-8.75-8.59-8.75Z"/>
      <path class="cls-1" d="M246.85,267.16q0-12-12.83-12,12.83,0,12.83-12,0,12,12.83,12-12.83,0-12.83,12Z"/>
      <path class="cls-1" d="M7.48,185.14q0,6.53,7.48,6.53-7.48,0-7.48,6.53,0-6.53-7.48-6.53,7.48,0,7.48-6.53Z"/>
      <path class="cls-1" d="M28.8,268.47q0-8.43-10.13-8.43,10.13,0,10.13-8.43,0,8.43,10.13,8.43-10.13,0-10.13,8.43Z"/>
      <path class="cls-1" d="M2.68,8.6q6.97,0,6.97-8.6,0,8.6,6.97,8.6-6.97,0-6.97,8.6,0-8.6-6.97-8.6Z"/>
      <path class="cls-1" d="M254.29,324.97q0-6.44-9.79-6.44,9.79,0,9.79-6.44,0,6.44,9.79,6.44-9.79,0-9.79,6.44Z"/>
    </g>
  </g>
</svg>