<?xml version="1.0" encoding="UTF-8"?>
<svg id="_レイヤー_2" data-name="レイヤー 2" xmlns="http://www.w3.org/2000/svg" viewBox="0 0 1342.1 722">
  <defs>
    <style>
      .cls-1 {
        stroke-width: 1.99px;
      }

      .cls-1, .cls-2 {
        stroke: #4e4e4e;
        stroke-miterlimit: 10;
      }

      .cls-2 {
        stroke-width: 1px;
      }
    </style>
  </defs>
  <g id="_レイヤー_1-2" data-name="レイヤー 1">
    <g>
      <path d="M1214.28,619.05q0-37.09-45.32-37.09,45.32,0,45.32-37.09,0,37.09,45.32,37.09-45.32,0-45.32,37.09Z"/>
      <path d="M832.18,509.11q0-24.65-30.63-24.65,30.63,0,30.63-24.65,0,24.65,30.63,24.65-30.63,0-30.63,24.65Z"/>
      <path d="M997.26,652.81q0,17.51,26.65,17.51-26.65,0-26.65,17.51,0-17.51-26.65-17.51,26.65,0,26.65-17.51Z"/>
      <path d="M461.24,257q0,20.45,25.66,20.45-25.66,0-25.66,20.45,0-20.45-25.66-20.45,25.66,0,25.66-20.45Z"/>
      <path d="M37.52,722q0-35.1-37.52-35.1,37.52,0,37.52-35.1,0,35.1,37.52,35.1-37.52,0-37.52,35.1Z"/>
      <path d="M253.66,568.09q23.63,0,23.63-27.36,0,27.36,23.63,27.36-23.63,0-23.63,27.36,0-27.36-23.63-27.36Z"/>
      <path d="M29.14,214.81q0,15.88,24.16,15.88-24.16,0-24.16,15.88,0-15.88-24.16-15.88,24.16,0,24.16-15.88Z"/>
      <path d="M730.02,237.87q20.38,0,20.38-25.13,0,25.13,20.38,25.13-20.38,0-20.38,25.13,0-25.13-20.38-25.13Z"/>
      <path d="M1270.52,317.96q24.52,0,24.52-37.72,0,37.72,24.52,37.72-24.52,0-24.52,37.72,0-37.72-24.52-37.72Z"/>
      <line class="cls-1" x1="415.29" y1="0" x2="415.29" y2="294"/>
      <line class="cls-1" x1="1115.4" y1="0" x2="1115.4" y2="220"/>
      <line class="cls-2" x1="441.64" y1="0" x2="441.64" y2="294"/>
      <line class="cls-1" x1="146.53" y1="0" x2="146.53" y2="506.5"/>
      <line class="cls-2" x1="1209.02" y1="0" x2="1209.02" y2="332.5"/>
      <line class="cls-1" x1="1325.03" y1="0" x2="1325.03" y2="336.5"/>
      <line class="cls-2" x1="1341.6" y1="0" x2="1340.15" y2="357"/>
    </g>
  </g>
</svg>