<?xml version="1.0" encoding="UTF-8"?>
<svg id="_レイヤー_2" data-name="レイヤー 2" xmlns="http://www.w3.org/2000/svg" viewBox="0 0 1222.21 743.57">
  <defs>
    <style>
      .cls-1 {
        stroke-width: 1.99px;
      }

      .cls-1, .cls-2, .cls-3 {
        stroke: #4e4e4e;
        stroke-miterlimit: 10;
      }

      .cls-2 {
        stroke-width: 1px;
      }
    </style>
  </defs>
  <g id="_レイヤー_1-2" data-name="レイヤー 1">
    <g>
      <path d="M1187.38,374.49q17.42,0,17.42-26.8,0,26.8,17.42,26.8-17.42,0-17.42,26.8,0-26.8-17.42-26.8Z"/>
      <path d="M923.35,275.82q26.05,0,26.05-30.63,0,30.63,26.05,30.63-26.05,0-26.05,30.63,0-30.63-26.05-30.63Z"/>
      <path d="M837.45,372.26q0,18.1,27.54,18.1-27.54,0-27.54,18.1,0-18.1-27.54-18.1,27.54,0,27.54-18.1Z"/>
      <path d="M774.17,433.32q12.19,0,12.19-22.13,0,22.13,12.19,22.13-12.19,0-12.19,22.13,0-22.13-12.19-22.13Z"/>
      <path d="M616.05,202.91q24.52,0,24.52-37.72,0,37.72,24.52,37.72-24.52,0-24.52,37.72,0-37.72-24.52-37.72Z"/>
      <path d="M463.9,505.26q18.66,0,18.66-20.07,0,20.07,18.66,20.07-18.66,0-18.66,20.07,0-20.07-18.66-20.07Z"/>
      <path d="M517.6,547.82q17.96,0,17.96-27.63,0,27.63,17.96,27.63-17.96,0-17.96,27.63,0-27.63-17.96-27.63Z"/>
      <path d="M21.88,342.26q0,19.1,21.88,19.1-21.88,0-21.88,19.1,0-19.1-21.88-19.1,21.88,0,21.88-19.1Z"/>
      <path d="M107.6,483.57q0-24.65-29.63-24.65,29.63,0,29.63-24.65,0,24.65,29.63,24.65-29.63,0-29.63,24.65Z"/>
      <path d="M162.57,562.32q19.58,0,19.58-30.13,0,30.13,19.58,30.13-19.58,0-19.58,30.13,0-30.13-19.58-30.13Z"/>
      <path d="M1179.3,743.57q0-20.55-31.28-20.55,31.28,0,31.28-20.55,0,20.55,31.28,20.55-31.28,0-31.28,20.55Z"/>
      <path d="M1148.89,609.76q0,19.85,30.21,19.85-30.21,0-30.21,19.85,0-19.85-30.21-19.85,30.21,0,30.21-19.85Z"/>
      <path class="cls-2" d="M97.73.5c-.29,0,0,248.96,0,248.96"/>
      <line class="cls-1" x1="108.93" y1=".46" x2="108.93" y2="249.46"/>
      <line class="cls-2" x1="1025.8" y1=".46" x2="1025.8" y2="347.46"/>
      <line class="cls-1" x1="221.1" y1=".46" x2="222.1" y2="644.46"/>
      <line class="cls-2" x1="839.08" y1=".46" x2="839.08" y2="372.46"/>
      <path d="M228.93,297.9q0-18.82-28.64-18.82,28.64,0,28.64-18.82,0,18.82,28.64,18.82-28.64,0-28.64,18.82Z"/>
      <path d="M231.91,404.46q0-10.6-20.68-10.6,20.68,0,20.68-10.6,0,10.6,20.68,10.6-20.68,0-20.68,10.6Z"/>
      <line class="cls-3" x1="1147.13" y1="338.96" x2="1148.89" y2="609.76"/>
      <line class="cls-2" x1="1178.95" y1="341.96" x2="1179.3" y2="702.46"/>
    </g>
  </g>
</svg>