<?xml version="1.0" encoding="UTF-8"?>
<svg id="_レイヤー_2" xmlns="http://www.w3.org/2000/svg" version="1.1" viewBox="0 0 1222.2 743.6">
  <!-- Generator: Adobe Illustrator 30.0.0, SVG Export Plug-In . SVG Version: 2.1.1 Build 123)  -->
  <defs>
    <style>
      .st0 {
        fill: #020202;
        stroke: #000;
        stroke-miterlimit: 10;
      }

      .st1 {
        fill: #f8f8f8;
      }
    </style>
  </defs>
  <rect class="st0" width="1222.2" height="743.6"/>
  <g id="_レイヤー_1-2">
    <g>
      <path class="st1" d="M1188.2,374.3c11.6,0,17.4-8.9,17.4-26.8,0,17.9,5.8,26.8,17.4,26.8-11.6,0-17.4,8.9-17.4,26.8,0-17.9-5.8-26.8-17.4-26.8Z"/>
      <path class="st1" d="M924.2,275.6c17.4,0,26-10.2,26-30.6,0,20.4,8.7,30.6,26,30.6-17.4,0-26,10.2-26,30.6,0-20.4-8.7-30.6-26-30.6Z"/>
      <path class="st1" d="M838.3,372c0,12.1,9.2,18.1,27.5,18.1-18.4,0-27.5,6-27.5,18.1,0-12.1-9.2-18.1-27.5-18.1,18.4,0,27.5-6,27.5-18.1Z"/>
      <path class="st1" d="M775,433.1c8.1,0,12.2-7.4,12.2-22.1,0,14.8,4.1,22.1,12.2,22.1-8.1,0-12.2,7.4-12.2,22.1,0-14.8-4.1-22.1-12.2-22.1Z"/>
      <path class="st1" d="M616.9,202.7c16.3,0,24.5-12.6,24.5-37.7,0,25.1,8.2,37.7,24.5,37.7-16.3,0-24.5,12.6-24.5,37.7,0-25.1-8.2-37.7-24.5-37.7Z"/>
      <path class="st1" d="M464.7,505c12.4,0,18.7-6.7,18.7-20.1,0,13.4,6.2,20.1,18.7,20.1-12.4,0-18.7,6.7-18.7,20.1,0-13.4-6.2-20.1-18.7-20.1Z"/>
      <path class="st1" d="M518.4,547.6c12,0,18-9.2,18-27.6,0,18.4,6,27.6,18,27.6-12,0-18,9.2-18,27.6,0-18.4-6-27.6-18-27.6Z"/>
      <path class="st1" d="M22.7,342c0,12.7,7.3,19.1,21.9,19.1-14.6,0-21.9,6.4-21.9,19.1,0-12.7-7.3-19.1-21.9-19.1,14.6,0,21.9-6.4,21.9-19.1Z"/>
      <path class="st1" d="M108.4,483.3c0-16.4-9.9-24.6-29.6-24.6,19.8,0,29.6-8.2,29.6-24.6,0,16.4,9.9,24.6,29.6,24.6-19.8,0-29.6,8.2-29.6,24.6Z"/>
      <path class="st1" d="M163.4,562.1c13.1,0,19.6-10,19.6-30.1,0,20.1,6.5,30.1,19.6,30.1-13.1,0-19.6,10-19.6,30.1,0-20.1-6.5-30.1-19.6-30.1Z"/>
      <path class="st1" d="M1180.1,743.3c0-13.7-10.4-20.5-31.3-20.5,20.9,0,31.3-6.9,31.3-20.5,0,13.7,10.4,20.5,31.3,20.5-20.9,0-31.3,6.9-31.3,20.5Z"/>
      <path class="st1" d="M1149.7,609.5c0,13.2,10.1,19.8,30.2,19.8-20.1,0-30.2,6.6-30.2,19.8,0-13.2-10.1-19.8-30.2-19.8,20.1,0,30.2-6.6,30.2-19.8Z"/>
      <path class="st1" d="M98.5.3c-.3,0,0,249,0,249"/>
      <line class="st1" x1="109.7" y1=".2" x2="109.7" y2="249.2"/>
      <line class="st1" x1="1026.6" y1=".2" x2="1026.6" y2="347.2"/>
      <line class="st1" x1="221.9" y1=".2" x2="222.9" y2="644.2"/>
      <line class="st1" x1="839.9" y1=".2" x2="839.9" y2="372.2"/>
      <path class="st1" d="M229.7,297.7c0-12.5-9.5-18.8-28.6-18.8,19.1,0,28.6-6.3,28.6-18.8,0,12.5,9.5,18.8,28.6,18.8-19.1,0-28.6,6.3-28.6,18.8h0Z"/>
      <path class="st1" d="M232.7,404.2c0-7.1-6.9-10.6-20.7-10.6,13.8,0,20.7-3.5,20.7-10.6,0,7.1,6.9,10.6,20.7,10.6-13.8,0-20.7,3.5-20.7,10.6Z"/>
      <line class="st1" x1="1147.9" y1="338.7" x2="1149.7" y2="609.5"/>
      <line class="st1" x1="1179.8" y1="341.7" x2="1180.1" y2="702.2"/>
    </g>
  </g>
</svg>