<?xml version="1.0" encoding="UTF-8"?>
<svg id="_レイヤー_2" xmlns="http://www.w3.org/2000/svg" version="1.1" viewBox="0 0 1342.1 722">
  <!-- Generator: Adobe Illustrator 30.0.0, SVG Export Plug-In . SVG Version: 2.1.1 Build 123)  -->
  <defs>
    <style>
      .st0, .st1, .st2 {
        stroke-miterlimit: 10;
      }

      .st0, .st2 {
        stroke: #4e4e4e;
      }

      .st0, .st2, .st3 {
        fill: #f8f8f8;
      }

      .st1 {
        fill: #020202;
        stroke: #000;
      }

      .st2 {
        stroke-width: 2px;
      }
    </style>
  </defs>
  <rect class="st1" width="1342.1" height="722"/>
  <g id="_レイヤー_1-2">
    <g>
      <path class="st3" d="M1215.6,619c0-24.7-15.1-37.1-45.3-37.1,30.2,0,45.3-12.4,45.3-37.1,0,24.7,15.1,37.1,45.3,37.1-30.2,0-45.3,12.4-45.3,37.1Z"/>
      <path class="st3" d="M833.5,509.1c0-16.4-10.2-24.6-30.6-24.6,20.4,0,30.6-8.2,30.6-24.6,0,16.4,10.2,24.6,30.6,24.6-20.4,0-30.6,8.2-30.6,24.6Z"/>
      <path class="st3" d="M998.6,652.8c0,11.7,8.9,17.5,26.7,17.5-17.8,0-26.7,5.8-26.7,17.5,0-11.7-8.9-17.5-26.7-17.5,17.8,0,26.7-5.8,26.7-17.5Z"/>
      <path class="st3" d="M462.5,257c0,13.6,8.6,20.5,25.7,20.5-17.1,0-25.7,6.8-25.7,20.5,0-13.6-8.6-20.5-25.7-20.5,17.1,0,25.7-6.8,25.7-20.5Z"/>
      <path class="st3" d="M38.8,722c0-23.4-12.5-35.1-37.5-35.1,25,0,37.5-11.7,37.5-35.1,0,23.4,12.5,35.1,37.5,35.1-25,0-37.5,11.7-37.5,35.1Z"/>
      <path class="st3" d="M255,568.1c15.8,0,23.6-9.1,23.6-27.4,0,18.2,7.9,27.4,23.6,27.4-15.8,0-23.6,9.1-23.6,27.4,0-18.2-7.9-27.4-23.6-27.4Z"/>
      <path class="st3" d="M30.4,214.8c0,10.6,8.1,15.9,24.2,15.9-16.1,0-24.2,5.3-24.2,15.9,0-10.6-8.1-15.9-24.2-15.9,16.1,0,24.2-5.3,24.2-15.9Z"/>
      <path class="st3" d="M731.3,237.9c13.6,0,20.4-8.4,20.4-25.1,0,16.8,6.8,25.1,20.4,25.1-13.6,0-20.4,8.4-20.4,25.1,0-16.8-6.8-25.1-20.4-25.1Z"/>
      <path class="st3" d="M1271.8,318c16.3,0,24.5-12.6,24.5-37.7,0,25.1,8.2,37.7,24.5,37.7-16.3,0-24.5,12.6-24.5,37.7,0-25.1-8.2-37.7-24.5-37.7Z"/>
      <line class="st2" x1="416.6" y1="0" x2="416.6" y2="294"/>
      <line class="st2" x1="1116.7" y1="0" x2="1116.7" y2="220"/>
      <line class="st0" x1="442.9" y1="0" x2="442.9" y2="294"/>
      <line class="st2" x1="147.8" y1="0" x2="147.8" y2="506.5"/>
      <line class="st0" x1="1210.3" y1="0" x2="1210.3" y2="332.5"/>
      <line class="st2" x1="1326.3" y1="0" x2="1326.3" y2="336.5"/>
      <line class="st0" x1="1342.9" y1="0" x2="1341.5" y2="357"/>
    </g>
  </g>
</svg>